<svg xmlns="http://www.w3.org/2000/svg" version="1.1" xmlns:xlink="http://www.w3.org/1999/xlink" xmlns:svgjs="http://svgjs.com/svgjs" width="512" height="512" x="0" y="0" viewBox="0 0 64 64" style="enable-background:new 0 0 512 512" xml:space="preserve" class=""><g><circle cx="32" cy="32" r="32" fill="#5766ae" data-original="#5766ae"></circle><g fill="#fff"><path d="M48.6 14.1h-3.7v-3.7z" fill="#ffffff" data-original="#ffffff"></path><path d="M44.2 15.6c-.4 0-.7-.3-.7-.7V9.3H15.1c-.4 0-.7.3-.7.7v44c0 .4.3.7.7.7H49c.4 0 .7-.3.7-.7V15.6zm-9 .3h5.5c.4 0 .7.3.7.7s-.3.7-.7.7h-5.5c-.4 0-.7-.3-.7-.7s.3-.7.7-.7zm-15.4 5.9c.7-.2 1.5-.6 2.2-1l-.6-1.2c-.5-.4-.8-1.1-.8-1.5-.1-.7.1-1.3.4-1.6v-.2c0-.8.2-1.6.8-2.2s1.4-1 2.3-1h.5c.9 0 1.8.3 2.3 1 .6.6.8 1.4.8 2.2v.2c.3.2.5.6.5 1.1v.4c-.1.4-.4 1.2-.8 1.5-.1.5-.3.9-.6 1.2.6.3 1.4.7 2.1 1 2.5.8 2.6 4.1 2.6 4.2 0 .3-.2.6-.5.7-2.2.6-4.4.9-6.6.9s-4.4-.3-6.6-.9c-.3-.1-.5-.4-.5-.7-.1-.1 0-3.4 2.5-4.1zm-2.7 9.8c0-.4.3-.7.7-.7h9.3c.4 0 .7.3.7.7v7.7c0 .4-.3.7-.7.7h-9.3c-.4 0-.7-.3-.7-.7zm17.5 19.5c0 .4-.3.7-.7.7h-16c-.4 0-.7-.3-.7-.7v-7.7c0-.4.3-.7.7-.7h16c.4 0 .7.3.7.7zm12.3 0c0 .4-.3.7-.7.7h-9.3c-.4 0-.7-.3-.7-.7v-7.7c0-.4.3-.7.7-.7h9.3c.4 0 .7.3.7.7zm0-11.7c0 .4-.3.7-.7.7h-16c-.4 0-.7-.3-.7-.7v-7.7c0-.4.3-.7.7-.7h16c.4 0 .7.3.7.7zm-.8-13.3H35.2c-.4 0-.7-.3-.7-.7s.3-.7.7-.7h10.9c.4 0 .7.3.7.7.1.4-.3.7-.7.7zm0-4.4H35.2c-.4 0-.7-.3-.7-.7s.3-.7.7-.7h10.9c.4 0 .7.3.7.7.1.4-.3.7-.7.7z" fill="#ffffff" data-original="#ffffff"></path><path d="M26.7 17.6v.2c-.1.3-.2.5-.3.6-.2.1-.4.3-.5.5-.3 1.1-1 1.9-1.6 1.9-.7 0-1.4-.8-1.6-1.9-.1-.2-.2-.4-.5-.5-.1-.1-.2-.4-.3-.6v-.2c.3-.1.5-.4.5-.7v-.7c0-.5.1-.8.4-1.1s.8-.5 1.3-.5h.5c.5 0 1 .2 1.3.5s.4.7.4 1.1v.7c0 .3.2.6.4.7zM30 25.4c-3.7.9-7.5.9-11.2 0 .1-.7.4-1.9 1.5-2.3 1-.3 2.1-.9 2.8-1.3.4.3.9.4 1.3.4.5 0 .9-.1 1.4-.4.7.4 1.8 1 2.8 1.3.9.4 1.2 1.6 1.4 2.3zM18.6 32.4h7.9v6.3h-7.9zM30.9 32.4h14.5v6.3H30.9zM37.5 44.1h7.9v6.3h-7.9zM18.6 44.1h14.5v6.3H18.6z" fill="#ffffff" data-original="#ffffff"></path></g></g></svg>